<svg width="15" height="10" viewBox="0 0 15 10" fill="none" xmlns="http://www.w3.org/2000/svg">
<path d="M0.803536 5.47825L11.4107 5.47825L9.08032 7.80861C8.75889 8.13004 8.75889 8.61218 9.08032 8.93361C9.40175 9.25504 9.88389 9.25504 10.2053 8.93361L13.9018 5.23718C14.2232 4.91575 14.2232 4.43361 13.9018 4.11218L10.2053 0.415754C9.88389 0.0943247 9.40175 0.0943247 9.08032 0.415754C8.75889 0.737182 8.75889 1.21932 9.08032 1.54075L11.4107 3.87111L0.803536 3.87111C0.40175 3.87111 -3.58041e-05 4.19254 -3.58462e-05 4.67468C-3.58884e-05 5.15682 0.40175 5.47825 0.803536 5.47825Z" fill="#4089ED"/>
</svg>
